{
  "accessors": [
    {
      "bufferView": 3,
      "componentType": 5126,
      "count": 356,
      "max": [
        0.46460041403770447,
        2.003589153289795,
        0.4236327111721039
      ],
      "min": [
        -0.46460041403770447,
        3.128661774098873e-09,
        -0.445170134305954
      ],
      "type": "VEC3"
    },
    {
      "bufferView": 3,
      "byteOffset": 4272,
      "componentType": 5126,
      "count": 356,
      "max": [
        1.0,
        1.0,
        1.0
      ],
      "min": [
        -1.0,
        -1.0,
        -1.0
      ],
      "type": "VEC3"
    },
    {
      "bufferView": 2,
      "componentType": 5126,
      "count": 356,
      "max": [
        1.0,
        1.0
      ],
      "min": [
        0.0,
        -0.0
      ],
      "type": "VEC2"
    },
    {
      "bufferView": 2,
      "byteOffset": 2848,
      "componentType": 5126,
      "count": 356,
      "max": [
        1.0,
        1.0
      ],
      "min": [
        0.0,
        0.8571428656578064
      ],
      "type": "VEC2"
    },
    {
      "bufferView": 2,
      "byteOffset": 5696,
      "componentType": 5126,
      "count": 356,
      "max": [
        1.0,
        1.0
      ],
      "min": [
        0.0,
        0.9285714030265808
      ],
      "type": "VEC2"
    },
    {
      "bufferView": 2,
      "byteOffset": 8544,
      "componentType": 5126,
      "count": 356,
      "max": [
        1.0,
        0.9296875
      ],
      "min": [
        0.0,
        0.8582589030265808
      ],
      "type": "VEC2"
    },
    {
      "bufferView": 1,
      "componentType": 5125,
      "count": 702,
      "type": "SCALAR"
    },
    {
      "bufferView": 5,
      "componentType": 5126,
      "count": 19,
      "max": [
        1.0,
        3.8582189887392815e-08,
        0.882657527923584,
        0.0,
        0.882657527923584,
        1.0,
        0.0,
        0.0,
        0.882657527923584,
        0.8826576471328735,
        1.0,
        0.0,
        0.009505154564976692,
        0.7315230369567871,
        0.6015717387199402,
        1.0
      ],
      "min": [
        -2.4902413997551776e-07,
        -7.579542682378815e-08,
        0.0,
        0.0,
        0.0,
        -0.882657527923584,
        -3.542451736393559e-07,
        0.0,
        -0.882657527923584,
        0.0,
        -3.823017209469981e-07,
        0.0,
        -0.7909178137779236,
        -2.44024658203125,
        -0.6293216347694397,
        1.0
      ],
      "type": "MAT4"
    },
    {
      "bufferView": 0,
      "componentType": 5123,
      "count": 356,
      "type": "VEC4"
    },
    {
      "bufferView": 4,
      "componentType": 5126,
      "count": 356,
      "max": [
        1.0,
        0.5,
        0.0,
        0.0
      ],
      "min": [
        0.5,
        0.0,
        0.0,
        0.0
      ],
      "type": "VEC4"
    }
  ],
  "asset": {
    "extras": {
      "author": "DURVESH123 (https://sketchfab.com/durvesh123)",
      "license": "CC-BY-4.0 (http://creativecommons.org/licenses/by/4.0/)",
      "source": "https://sketchfab.com/3d-models/minecraft-wandering-trader-b15b18c970d448c39b140bc32eb2672e",
      "title": "Minecraft wandering trader"
    },
    "generator": "Sketchfab-13.21.0",
    "version": "2.0"
  },
  "bufferViews": [
    {
      "buffer": 0,
      "byteLength": 2848,
      "byteStride": 8,
      "name": "shortBufferViews",
      "target": 34962
    },
    {
      "buffer": 0,
      "byteLength": 2808,
      "byteOffset": 2848,
      "name": "floatBufferViews",
      "target": 34963
    },
    {
      "buffer": 0,
      "byteLength": 11392,
      "byteOffset": 5656,
      "byteStride": 8,
      "name": "floatBufferViews",
      "target": 34962
    },
    {
      "buffer": 0,
      "byteLength": 8544,
      "byteOffset": 17048,
      "byteStride": 12,
      "name": "floatBufferViews",
      "target": 34962
    },
    {
      "buffer": 0,
      "byteLength": 5696,
      "byteOffset": 25592,
      "byteStride": 16,
      "name": "floatBufferViews",
      "target": 34962
    },
    {
      "buffer": 0,
      "byteLength": 1216,
      "byteOffset": 31288,
      "name": "floatBufferViews"
    }
  ],
  "buffers": [
    {
      "byteLength": 32504,
      "uri": "scene.bin"
    }
  ],
  "images": [
    {
      "uri": "textures/Villager_Quick_Switch_Skin_baseColor.png"
    }
  ],
  "materials": [
    {
      "alphaCutoff": 0.001,
      "alphaMode": "MASK",
      "doubleSided": true,
      "name": "Villager_Quick_Switch_Skin",
      "pbrMetallicRoughness": {
        "baseColorTexture": {
          "index": 0
        },
        "metallicFactor": 0.3270200714272677,
        "roughnessFactor": 0.7650748647810031
      }
    }
  ],
  "meshes": [
    {
      "name": "Object_0",
      "primitives": [
        {
          "attributes": {
            "JOINTS_0": 8,
            "NORMAL": 1,
            "POSITION": 0,
            "TEXCOORD_0": 2,
            "TEXCOORD_1": 3,
            "TEXCOORD_2": 4,
            "TEXCOORD_3": 5,
            "WEIGHTS_0": 9
          },
          "indices": 6,
          "material": 0,
          "mode": 4
        }
      ]
    }
  ],
  "nodes": [
    {
      "children": [
        1
      ],
      "matrix": [
        0.8888916373252869,
        -2.3695914081536265e-16,
        5.442087045910481e-17,
        0.0,
        5.443695825267261e-17,
        6.033308677261137e-05,
        -0.8888916373252869,
        0.0,
        2.369554467991431e-16,
        0.8888916373252869,
        6.033308677261137e-05,
        0.0,
        0.0,
        0.0,
        0.0,
        1.0
      ],
      "name": "Sketchfab_model"
    },
    {
      "children": [
        2
      ],
      "name": "root"
    },
    {
      "children": [
        3
      ],
      "matrix": [
        1.0,
        0.0,
        0.0,
        0.0,
        0.0,
        2.220446049250313e-16,
        1.0,
        0.0,
        0.0,
        -1.0,
        2.220446049250313e-16,
        0.0,
        0.0,
        0.0,
        0.0,
        1.0
      ],
      "name": "GLTF_SceneRootNode"
    },
    {
      "children": [
        4
      ],
      "matrix": [
        0.0,
        0.0,
        -1.1329421997070313,
        0.0,
        0.0,
        1.1329421997070313,
        0.0,
        0.0,
        1.1329421997070313,
        0.0,
        0.0,
        0.0,
        0.0,
        0.0,
        0.0,
        1.0
      ],
      "name": "Villager Bones_19"
    },
    {
      "children": [
        5,
        7,
        6
      ],
      "name": "GLTF_created_0"
    },
    {
      "children": [
        8
      ],
      "name": "GLTF_created_0_rootJoint"
    },
    {
      "name": "Villager Mesh_18"
    },
    {
      "mesh": 0,
      "name": "Object_7",
      "skin": 0
    },
    {
      "children": [
        9,
        17,
        19,
        21
      ],
      "name": "Root_17"
    },
    {
      "children": [
        10,
        13,
        15
      ],
      "name": "Lower Body_7",
      "rotation": [
        0.0,
        1.1920926823449918e-07,
        0.0,
        1.0
      ],
      "translation": [
        0.00950511172413826,
        0.6151245832443237,
        0.0
      ]
    },
    {
      "children": [
        11,
        12
      ],
      "name": "Upper Body_2",
      "rotation": [
        0.0,
        7.105427357601002e-15,
        0.0,
        1.0
      ],
      "scale": [
        1.0,
        0.9999999403953552,
        1.0
      ],
      "translation": [
        0.0,
        0.3028801679611206,
        0.0
      ]
    },
    {
      "name": "Head_0",
      "rotation": [
        0.0,
        7.105427357601002e-15,
        0.0,
        1.0
      ],
      "translation": [
        0.0,
        0.3123404383659363,
        0.0
      ]
    },
    {
      "name": "Bone.006_1",
      "rotation": [
        -1.008415182468525e-07,
        -1.1265506572044615e-07,
        0.9239149689674377,
        0.3825978934764862
      ],
      "scale": [
        0.9999999403953552,
        1.0,
        1.0
      ],
      "translation": [
        -0.051702965050935745,
        0.15851575136184692,
        -1.2326947462781845e-08
      ]
    },
    {
      "children": [
        14
      ],
      "name": "Leg Upper L_4",
      "rotation": [
        1.090157510930112e-07,
        -6.024343246480157e-09,
        -1.0,
        6.567483191426019e-16
      ],
      "translation": [
        -2.6566477018263868e-08,
        0.0,
        0.111427903175354
      ]
    },
    {
      "name": "Leg Lower L_3",
      "rotation": [
        1.5777218104420236e-30,
        -1.1920930376163597e-07,
        4.632212061385679e-23,
        1.0
      ],
      "scale": [
        0.9999999403953552,
        0.9999999403953552,
        0.9999999403953552
      ],
      "translation": [
        6.133937108243614e-11,
        0.30756232142448425,
        1.4352318222776717e-09
      ]
    },
    {
      "children": [
        16
      ],
      "name": "Leg Upper R_6",
      "rotation": [
        -1.2275825156393694e-07,
        -6.024342802390947e-09,
        1.0,
        7.530436274549857e-10
      ],
      "translation": [
        2.6182700452181962e-08,
        0.0,
        -0.1098182275891304
      ]
    },
    {
      "name": "Leg Lower R_5",
      "rotation": [
        0.0,
        -1.1920928955078125e-07,
        0.0,
        1.0
      ],
      "scale": [
        0.9999999403953552,
        0.9999999403953552,
        0.9999999403953552
      ],
      "translation": [
        1.8171418536550021e-10,
        0.30756232142448425,
        1.4352318222776717e-09
      ]
    },
    {
      "children": [
        18
      ],
      "name": "IK Leg L_9",
      "rotation": [
        1.4189487274052226e-07,
        -1.4189487274052226e-07,
        0.7071068286895752,
        0.7071068286895752
      ],
      "translation": [
        0.00950511172413826,
        -0.0032483041286468506,
        0.111427903175354
      ]
    },
    {
      "name": "IK Knee L_8",
      "scale": [
        1.0,
        0.9999999403953552,
        1.0
      ],
      "translation": [
        0.32998499274253845,
        0.2893129587173462,
        -1.3858284830803314e-07
      ]
    },
    {
      "children": [
        20
      ],
      "name": "IK Leg R_11",
      "rotation": [
        1.4189487274052226e-07,
        -1.4189487274052226e-07,
        0.7071068286895752,
        0.7071068286895752
      ],
      "translation": [
        0.00950511172413826,
        -0.0032483041286468506,
        -0.1098182275891304
      ]
    },
    {
      "name": "IK Knee R_10",
      "scale": [
        1.0,
        0.9999999403953552,
        1.0
      ],
      "translation": [
        0.32998499274253845,
        0.2893129587173462,
        -1.2368168711418548e-07
      ]
    },
    {
      "children": [
        22,
        23,
        24,
        25
      ],
      "name": "Switcher Bone_16",
      "rotation": [
        0.0,
        1.1920927533992653e-07,
        0.0,
        1.0
      ],
      "translation": [
        0.00950511172413826,
        2.44024658203125,
        0.0
      ]
    },
    {
      "name": "Bound1_12",
      "translation": [
        1.6950289705164323e-07,
        -0.6830317974090576,
        -0.6015717387199402
      ]
    },
    {
      "name": "Bound2_13",
      "translation": [
        -1.7798163298721192e-07,
        -0.6830317974090576,
        0.6293216347694397
      ]
    },
    {
      "name": "Type Switcher_14",
      "rotation": [
        0.0,
        -7.105428204633949e-15,
        0.0,
        1.0
      ],
      "scale": [
        0.9999998807907104,
        0.9999998807907104,
        0.9999998807907104
      ],
      "translation": [
        1.6950288284078852e-07,
        -0.6830318570137024,
        -0.6015716791152954
      ]
    },
    {
      "name": "Profession Switcher_15",
      "rotation": [
        0.0,
        -7.105428204633949e-15,
        0.0,
        1.0
      ],
      "scale": [
        0.9999998807907104,
        0.9999998807907104,
        0.9999998807907104
      ],
      "translation": [
        -1.789129413509727e-07,
        -0.6830318570137024,
        0.6293215751647949
      ]
    }
  ],
  "samplers": [
    {
      "magFilter": 9728,
      "minFilter": 9986,
      "wrapS": 10497,
      "wrapT": 10497
    }
  ],
  "scene": 0,
  "scenes": [
    {
      "name": "Sketchfab_Scene",
      "nodes": [
        0
      ]
    }
  ],
  "skins": [
    {
      "inverseBindMatrices": 7,
      "joints": [
        5,
        8,
        9,
        10,
        11,
        12,
        13,
        14,
        15,
        16,
        17,
        18,
        19,
        20,
        21,
        22,
        23,
        24,
        25
      ],
      "skeleton": 5
    }
  ],
  "textures": [
    {
      "sampler": 0,
      "source": 0
    }
  ]
}
